<?xml version="1.0" encoding="utf-8"?>
<!-- Generator: Adobe Illustrator 19.0.0, SVG Export Plug-In . SVG Version: 6.00 Build 0)  -->
<svg version="1.1" id="Layer_1" xmlns="http://www.w3.org/2000/svg" xmlns:xlink="http://www.w3.org/1999/xlink" x="0px" y="0px"
	 viewBox="0 0 811.3 616.4" style="enable-background:new 0 0 811.3 616.4;" xml:space="preserve">
<style type="text/css">
	.st0{fill:#FFFFFF;}
	.st1{fill:#EAFBD4;}
	.st2{font-family:'HelveticaNeue-Light';}
	.st3{font-size:10px;}
	.st4{fill:none;stroke:#231F20;stroke-width:0.25;stroke-miterlimit:10;}
	.st5{font-size:9px;}
</style>
<image style="overflow:visible;" width="1012" height="771" xlink:href="CA199A8D.png"  transform="matrix(0.8 0 0 0.8 0.5333 -0.5033)">
</image>
<rect x="216" y="118.2" class="st0" width="380.7" height="400.6"/>
<rect x="233.3" y="219.7" class="st1" width="129.3" height="21.3"/>
<rect x="575.3" y="419.7" class="st1" width="129.3" height="21.3"/>
<rect x="420" y="419.7" class="st1" width="129.3" height="21.3"/>
<g id="ys74_x5F_0449_x5F_320hx189w.psd">
	<g>
		<defs>
			<rect id="SVGID_1_" x="407.6" y="166.7" width="151.2" height="256"/>
		</defs>
		<clipPath id="SVGID_2_">
			<use xlink:href="#SVGID_1_"  style="overflow:visible;"/>
		</clipPath>
		<g style="clip-path:url(#SVGID_2_);">
			
				<image style="overflow:visible;" width="189" height="320" xlink:href="CA199A8F.png"  transform="matrix(0.8 0 0 0.8 407.5667 166.73)">
			</image>
		</g>
	</g>
</g>
<image style="overflow:visible;" width="182" height="79" xlink:href="CA199A8A.png"  transform="matrix(0.8 0 0 0.8 573.2 359.6333)">
</image>
<g id="Shadow">
</g>
<image style="overflow:visible;" width="170" height="107" xlink:href="CA199A8B.png"  transform="matrix(0.8 0 0 0.8 574.8 331.6333)">
</image>
<g id="Base">
</g>
<image style="overflow:visible;" width="99" height="81" xlink:href="CA199A95.png"  transform="matrix(0.8 0 0 0.8 594 273.2333)">
</image>
<g id="Mechanism">
</g>
<image style="overflow:visible;" width="120" height="49" xlink:href="CA199A97.png"  transform="matrix(0.8 0 0 0.8 600.4 280.4333)">
</image>
<g id="Fabric">
</g>
<image style="overflow:visible;" width="42" height="69" xlink:href="CA199A9A.png"  transform="matrix(0.8 0 0 0.8 594.8 280.4333)">
</image>
<g id="Back_Metal">
</g>
<image style="overflow:visible;" width="45" height="127" xlink:href="CA199A9B.png"  transform="matrix(0.8 0 0 0.8 582.8 194.8333)">
</image>
<g id="FabricBack">
</g>
<g>
	<text transform="matrix(1 0 0 1 239.3333 254.3967)"><tspan x="0" y="0" class="st2 st3">1. Pneumatic Tilt</tspan><tspan x="0" y="18" class="st2 st3">2. Synchronous Tilting</tspan><tspan x="0" y="36" class="st2 st3">3. Back Height Adjustment</tspan><tspan x="0" y="54" class="st2 st3">4. Multiple Position Lock</tspan><tspan x="0" y="72" class="st2 st3">5. Sliding Seat</tspan><tspan x="0" y="90" class="st2 st3">6. Tension Knob</tspan><tspan x="0" y="108" class="st2 st3">7. Rocking Tilt</tspan></text>
	<line class="st4" x1="230.7" y1="258.4" x2="362.7" y2="258.4"/>
	<line class="st4" x1="230.7" y1="277.7" x2="362.7" y2="277.7"/>
	<line class="st4" x1="230.7" y1="295.1" x2="362.7" y2="295.1"/>
	<line class="st4" x1="230.7" y1="314.4" x2="362.7" y2="314.4"/>
	<line class="st4" x1="230.7" y1="332.4" x2="362.7" y2="332.4"/>
	<line class="st4" x1="230.7" y1="348.4" x2="362.7" y2="348.4"/>
	<line class="st4" x1="230.7" y1="369.7" x2="362.7" y2="369.7"/>
	<line class="st4" x1="230.7" y1="241.7" x2="362.7" y2="241.7"/>
	<text transform="matrix(1 0 0 1 240.6667 235.0635)" class="st2 st5">Select an adjustment:</text>
</g>
<text transform="matrix(1 0 0 1 447.3332 434.3963)" class="st2 st5">Select a control</text>
<text transform="matrix(1 0 0 1 607.3331 433.7297)" class="st2 st5">See the Action</text>
</svg>
